<svg width="50" height="12" viewBox="0 0 50 12" fill="none" xmlns="http://www.w3.org/2000/svg">
<path d="M0.733313 12L3.67731 0.799999H7.35731L10.3013 12H8.12531L7.51731 9.536H3.51731L2.90931 12H0.733313ZM4.01331 7.584H7.02131L5.66131 2.128H5.37331L4.01331 7.584ZM11.6419 12V0.799999H13.7539V10.08H18.8739V12H11.6419ZM20.3138 12V0.799999H24.9218C25.6258 0.799999 26.2445 0.943999 26.7778 1.232C27.3218 1.50933 27.7431 1.904 28.0418 2.416C28.3511 2.928 28.5058 3.536 28.5058 4.24V4.464C28.5058 5.15733 28.3458 5.76533 28.0258 6.288C27.7165 6.8 27.2898 7.2 26.7458 7.488C26.2125 7.76533 25.6045 7.904 24.9218 7.904H22.4258V12H20.3138ZM22.4258 5.984H24.7138C25.2151 5.984 25.6205 5.84533 25.9298 5.568C26.2391 5.29067 26.3938 4.912 26.3938 4.432V4.272C26.3938 3.792 26.2391 3.41333 25.9298 3.136C25.6205 2.85867 25.2151 2.72 24.7138 2.72H22.4258V5.984ZM29.9701 12V0.799999H32.0821V5.424H36.2421V0.799999H38.3541V12H36.2421V7.344H32.0821V12H29.9701ZM39.7021 12L42.6461 0.799999H46.3261L49.2701 12H47.0941L46.4861 9.536H42.4861L41.8781 12H39.7021ZM42.9821 7.584H45.9901L44.6301 2.128H44.3421L42.9821 7.584Z" fill="#FCF7E6"/>
</svg>
